<?xml version="1.0" encoding="UTF-8"?><svg id="a" xmlns="http://www.w3.org/2000/svg" viewBox="0 0 496.7 364.79"><defs><style>.b{fill:#c9b67c;}</style></defs><path class="b" d="M260.88,65.3l25.45,66.77h-51.18l25.74-66.77Zm-34.03,89.62h68.05l2.26,5.82h29.12l-52.25-128.07h-25.45l-52.48,128.07h28.49l2.25-5.82Z"/><path class="b" d="M67.81,56.03h26.41c4.15,0,8.11,.3,11.87,.89,3.76,.59,7.07,1.72,9.94,3.39,2.86,1.67,5.14,3.88,6.82,6.64,1.68,2.75,2.52,6.19,2.52,10.32,0,4.52-.89,8.25-2.67,11.2-1.78,2.95-4.21,5.35-7.27,7.22-3.07,1.87-6.58,3.19-10.53,3.98-3.96,.79-8.12,1.18-12.46,1.18h-24.63V56.03Zm0,68.25h22.76l20.02,36.45h32.1l-23.46-40.66c10.26-2.75,18.6-7.78,25.01-15.07,6.41-7.29,9.62-16.75,9.62-28.38,0-8.27-1.53-15.27-4.59-20.98-3.06-5.71-7.25-10.25-12.58-13.6-5.33-3.35-11.49-5.76-18.5-7.24-7.01-1.47-14.46-2.22-22.35-2.22H39.32V191.34h28.49V124.28Z"/><path class="b" d="M288.66,328.14c8.11-3.26,14.93-7.71,20.47-13.35,5.54-5.64,9.79-12.31,12.76-20.03,2.97-7.71,4.45-16.12,4.45-25.22v-25.36h-28.49v23.29c0,5.34-.64,10.39-1.93,15.13-1.29,4.75-3.41,9-6.38,12.76-2.97,3.76-6.78,6.73-11.42,8.9-4.65,2.18-10.34,3.27-17.06,3.27s-12.42-1.09-17.06-3.27c-4.65-2.17-8.41-5.14-11.28-8.9-2.87-3.76-4.95-8.01-6.23-12.76-1.29-4.75-1.93-9.79-1.93-15.13v-23.29h-28.49v25.36c0,9.1,1.43,17.51,4.3,25.22,2.87,7.71,7.07,14.39,12.61,20.03,5.54,5.64,12.36,10.09,20.48,13.35,8.11,3.26,17.31,4.9,27.6,4.9s19.48-1.63,27.6-4.9"/><path class="b" d="M496.7,211.4v-6.05h-18.53v6.05h5.78v25.42h6.98v-25.42h5.78Zm-25.73,25.42v-31.46h-7.07v11.91h-7.33v-11.91h-7.06v31.46h7.06v-13.15h7.33v13.15h7.07Zm-29.02-3.42l-3.96-4.93c-.42,.65-.98,1.21-1.69,1.69-.71,.47-1.54,.71-2.49,.71s-1.78-.25-2.49-.75c-.71-.5-1.31-1.2-1.8-2.09-.49-.89-.85-1.93-1.09-3.11-.24-1.19-.36-2.46-.36-3.82s.12-2.64,.36-3.84c.24-1.2,.6-2.24,1.09-3.11,.49-.87,1.08-1.56,1.78-2.07,.7-.5,1.52-.75,2.46-.75,1.01,0,1.84,.21,2.51,.62,.67,.42,1.27,.98,1.8,1.69l3.82-5.16c-.86-1.12-1.99-2.07-3.4-2.82-1.41-.76-3.16-1.13-5.27-1.13-1.84,0-3.5,.4-5,1.2-1.5,.8-2.78,1.93-3.84,3.38-1.07,1.45-1.9,3.2-2.49,5.24-.59,2.04-.89,4.29-.89,6.75s.29,4.66,.89,6.69c.59,2.03,1.42,3.78,2.49,5.24,1.07,1.47,2.35,2.61,3.84,3.42,1.5,.81,3.16,1.22,5,1.22,2.16,0,3.94-.41,5.33-1.22,1.39-.81,2.52-1.83,3.38-3.04m-28.26,3.42v-6.4h-8.93v-6.75h7.73v-5.87h-7.73v-6.18h8.4v-6.27h-15.2v31.46h15.73Zm-32.64-18.51c-.75,.64-1.64,.96-2.64,.96h-2.09v-7.95h2.22c.41,0,.84,.05,1.27,.16,.43,.1,.82,.3,1.18,.6,.35,.3,.64,.7,.87,1.2,.22,.51,.33,1.16,.33,1.96,0,1.42-.38,2.45-1.13,3.09m9.04,18.51l-5.36-14.04c.5-.18,1.02-.47,1.55-.89,.53-.41,1.01-.95,1.44-1.6,.43-.65,.77-1.44,1.04-2.35,.27-.92,.4-1.96,.4-3.11,0-3.14-.84-5.5-2.53-7.09-1.69-1.58-4.05-2.38-7.09-2.38h-10.06v31.46h6.84v-12.53h2.08l4.21,12.53h7.49Zm-27.82-25.42v-6.05h-18.53v6.05h5.78v25.42h6.98v-25.42h5.78Zm-25.2,13.78v-19.82h-7.11v19.2c0,.89-.05,1.72-.16,2.49-.1,.77-.29,1.43-.56,1.98-.27,.55-.62,.98-1.07,1.31-.44,.33-1.02,.49-1.73,.49s-1.29-.16-1.73-.49c-.44-.33-.8-.76-1.07-1.31-.27-.55-.45-1.21-.56-1.98-.1-.77-.16-1.6-.16-2.49v-19.2h-7.15v19.82c0,1.75,.18,3.38,.56,4.89,.37,1.51,.98,2.83,1.82,3.95,.84,1.13,1.93,2.02,3.27,2.67,1.33,.65,2.96,.98,4.89,.98s3.57-.33,4.93-.98c1.36-.65,2.47-1.54,3.33-2.67,.86-1.12,1.49-2.44,1.89-3.95,.4-1.51,.6-3.14,.6-4.89m-29.24-3.29h-8.53v5.29h8.53v-5.29Zm-24.51,6.29c-1.08,1.62-2.48,2.42-4.2,2.42h-1.73v-19.02h1.73c1.72,0,3.12,.81,4.2,2.42,1.08,1.62,1.62,4.01,1.62,7.18s-.54,5.38-1.62,7m8-13.55c-.52-1.94-1.31-3.6-2.38-4.98-1.07-1.38-2.42-2.44-4.07-3.18-1.64-.74-3.59-1.11-5.84-1.11h-8.84v31.46h8.84c2.25,0,4.2-.37,5.84-1.11,1.64-.74,3-1.79,4.07-3.15s1.86-3.01,2.38-4.93c.52-1.93,.78-4.07,.78-6.44s-.26-4.62-.78-6.55m-31.17-9.27h-7.15v31.46h7.15v-31.46Zm-16.66,19.82v-19.82h-7.11v19.2c0,.89-.05,1.72-.15,2.49-.1,.77-.29,1.43-.55,1.98-.27,.55-.62,.98-1.07,1.31-.44,.33-1.02,.49-1.73,.49s-1.29-.16-1.73-.49c-.44-.33-.8-.76-1.07-1.31-.27-.55-.45-1.21-.56-1.98-.1-.77-.15-1.6-.15-2.49v-19.2h-7.16v19.82c0,1.75,.19,3.38,.56,4.89,.37,1.51,.98,2.83,1.82,3.95,.85,1.13,1.93,2.02,3.27,2.67s2.96,.98,4.89,.98,3.57-.33,4.93-.98c1.36-.65,2.47-1.54,3.33-2.67,.86-1.12,1.49-2.44,1.89-3.95,.4-1.51,.6-3.14,.6-4.89m-29.51,11.64v-6.4h-9.6l9.6-19.41v-5.66h-16.98v6.27h8.84l-9.64,19.42v5.78h17.77Z"/><path class="b" d="M485.23,180.95h10.73v-2.84h-10.73v-7.35h11.47v-2.91h-14.78v23.67h3.31v-10.57Zm-25.11-.27h11.17v-2.84h-11.17v-7.09h11.87v-2.91h-15.18v23.67h15.68v-2.94h-12.37v-7.89Zm-14.08-12.84h-3.31v23.67h3.31v-23.67Zm-32.71,23.67h3.31v-10.83h11.97v10.83h3.34v-23.67h-3.34v9.9h-11.97v-9.9h-3.31v23.67Zm-11.03-5.48c-.71,1.02-1.62,1.8-2.71,2.34-1.09,.54-2.31,.8-3.64,.8s-2.59-.24-3.7-.74c-1.1-.49-2.04-1.16-2.81-2.02-.77-.86-1.36-1.87-1.77-3.03-.41-1.16-.62-2.41-.62-3.74s.21-2.51,.63-3.66c.42-1.15,1.03-2.16,1.81-3.02,.78-.87,1.72-1.56,2.83-2.06,1.1-.5,2.34-.75,3.73-.75,1.22,0,2.37,.26,3.43,.79,1.06,.52,1.88,1.19,2.46,1.99l2.61-2.01c-.45-.6-.98-1.13-1.61-1.59-.62-.46-1.32-.84-2.07-1.15-.76-.31-1.55-.55-2.38-.7-.82-.16-1.64-.23-2.44-.23-1.81,0-3.48,.3-5.02,.9-1.54,.6-2.87,1.44-4,2.53-1.13,1.08-2.01,2.38-2.64,3.91-.64,1.52-.95,3.21-.95,5.07s.31,3.51,.94,5.03c.62,1.53,1.49,2.84,2.59,3.94,1.1,1.11,2.42,1.96,3.95,2.58,1.53,.61,3.19,.92,5,.92,2.1,0,3.89-.4,5.38-1.19,1.49-.79,2.71-1.82,3.64-3.09l-2.64-1.8Zm-39.89-15.38h4.05c.71,0,1.39,.06,2.04,.18,.65,.12,1.21,.33,1.69,.62,.48,.29,.86,.67,1.15,1.15,.29,.48,.44,1.08,.44,1.79s-.15,1.31-.44,1.79c-.29,.48-.68,.87-1.18,1.17-.5,.3-1.09,.52-1.76,.65-.67,.13-1.39,.2-2.17,.2h-3.81v-7.56Zm0,10.33h3.54l6.02,10.53h4.01l-6.62-10.87c1.69-.29,3.08-.97,4.15-2.04,1.07-1.07,1.6-2.47,1.6-4.21,0-1.2-.22-2.22-.67-3.06-.45-.84-1.05-1.51-1.82-2.02-.77-.51-1.67-.89-2.69-1.12-1.02-.23-2.11-.35-3.24-.35h-7.59v23.67h3.31v-10.53Zm-23.14-9.3l4.41,11.1h-8.86l4.45-11.1Zm-5.62,14.01h11.24l2.41,5.82h3.74l-10.16-23.67h-3.01l-10.27,23.67h3.68l2.37-5.82Zm-34.11-17.86h-3.31v23.67h13.88v-2.94h-10.57v-20.73Zm-23.14,3.85l4.41,11.1h-8.86l4.45-11.1Zm-5.62,14.01h11.24l2.41,5.82h3.75l-10.17-23.67h-3.01l-10.27,23.67h3.68l2.37-5.82Zm-23.17-14.01l4.42,11.1h-8.86l4.45-11.1Zm-5.62,14.01h11.24l2.41,5.82h3.75l-10.16-23.67h-3.01l-10.27,23.67h3.68l2.37-5.82Zm-29.86-17.86h-4.31v23.67h3.31v-19.33h.07l12.51,19.33h4.18v-23.67h-3.31v18.93h-.07l-12.37-18.93Zm-18.06,15.52c-.42,1.16-1.03,2.17-1.8,3.02-.78,.86-1.73,1.54-2.84,2.02-1.12,.49-2.35,.74-3.71,.74s-2.59-.24-3.68-.74c-1.09-.49-2.03-1.16-2.81-2.02-.78-.86-1.38-1.87-1.81-3.02-.42-1.16-.64-2.4-.64-3.71s.21-2.51,.64-3.66c.42-1.15,1.02-2.16,1.79-3.02,.77-.87,1.7-1.56,2.81-2.06,1.1-.5,2.34-.75,3.7-.75s2.62,.25,3.73,.75c1.1,.5,2.04,1.19,2.83,2.06,.78,.87,1.38,1.88,1.8,3.02,.42,1.15,.63,2.37,.63,3.66s-.21,2.55-.63,3.71m3.26-8.78c-.64-1.53-1.51-2.83-2.63-3.91-1.11-1.08-2.44-1.92-3.98-2.53-1.54-.6-3.21-.9-5.02-.9s-3.47,.3-5,.9c-1.53,.6-2.85,1.44-3.96,2.53-1.12,1.08-1.98,2.38-2.61,3.91-.62,1.52-.94,3.21-.94,5.07s.31,3.51,.94,5.03c.62,1.53,1.49,2.84,2.61,3.94,1.11,1.11,2.44,1.96,3.96,2.58,1.53,.61,3.19,.92,5,.92s3.48-.31,5.02-.92c1.54-.61,2.86-1.47,3.98-2.58,1.12-1.1,1.99-2.42,2.63-3.94,.64-1.53,.95-3.21,.95-5.03s-.32-3.54-.95-5.07m-33.69-6.74h-3.31v23.67h3.31v-23.67Zm-14.18,2.47c-.98-.94-2.21-1.68-3.7-2.24-1.48-.56-3.17-.84-5.06-.84s-3.48,.3-5.02,.9c-1.54,.6-2.87,1.44-4,2.53-1.13,1.08-2.01,2.38-2.64,3.91-.64,1.52-.95,3.21-.95,5.07s.31,3.51,.94,5.03c.62,1.53,1.49,2.84,2.61,3.94,1.11,1.11,2.44,1.96,3.99,2.58,1.55,.61,3.25,.92,5.1,.92,1.74,0,3.34-.18,4.82-.54,1.47-.36,2.83-.87,4.08-1.54v-11.47h-8.53v2.81h5.25v6.59c-.69,.38-1.5,.67-2.44,.87-.94,.2-1.96,.3-3.08,.3-1.4,0-2.67-.24-3.81-.74-1.14-.49-2.1-1.16-2.88-2.02-.78-.86-1.38-1.87-1.81-3.02-.42-1.16-.63-2.4-.63-3.71s.21-2.51,.63-3.66c.42-1.15,1.03-2.16,1.81-3.02,.78-.87,1.73-1.56,2.84-2.06,1.12-.5,2.36-.75,3.74-.75s2.59,.23,3.7,.7c1.1,.47,2.01,1.09,2.73,1.87l2.31-2.41Zm-41.97,10.37h11.17v-2.84h-11.17v-7.09h11.87v-2.91h-15.18v23.67h15.68v-2.94h-12.37v-7.89Zm-25.55-10.03h4.05c.71,0,1.39,.06,2.04,.18,.65,.12,1.21,.33,1.69,.62,.48,.29,.86,.67,1.15,1.15,.29,.48,.44,1.08,.44,1.79s-.14,1.31-.44,1.79c-.29,.48-.68,.87-1.19,1.17-.5,.3-1.09,.52-1.76,.65-.67,.13-1.39,.2-2.17,.2h-3.81v-7.56Zm0,10.33h3.54l6.02,10.53h4.01l-6.62-10.87c1.69-.29,3.08-.97,4.15-2.04,1.07-1.07,1.61-2.47,1.61-4.21,0-1.2-.22-2.22-.67-3.06-.44-.84-1.05-1.51-1.82-2.02-.77-.51-1.67-.89-2.69-1.12-1.03-.23-2.11-.35-3.24-.35h-7.59v23.67h3.31v-10.53Z"/><polygon class="b" points="0 0 0 228.79 23.03 228.79 23.03 23.03 342.41 23.03 342.41 160.7 365.44 160.87 365.44 0 0 0"/><polygon class="b" points="39.39 205.36 39.39 228.8 123.17 228.8 39.4 342.41 39.4 364.79 159.29 364.79 159.29 364.79 365.44 364.79 365.44 244.18 342.41 244.18 342.41 341.76 74.76 341.76 158.18 228.8 158.18 205.36 39.39 205.36"/></svg>