<?xml version="1.0" encoding="UTF-8" standalone="no"?>
<!-- Created with Inkscape (http://www.inkscape.org/) -->

<svg
   width="130mm"
   height="130mm"
   viewBox="0 0 130 130"
   version="1.1"
   id="svg1"
   inkscape:version="1.3.1 (91b66b0783, 2023-11-16)"
   sodipodi:docname="Logo HuizenEnMensenInWijk-30% transparantie.svg"
   xmlns:inkscape="http://www.inkscape.org/namespaces/inkscape"
   xmlns:sodipodi="http://sodipodi.sourceforge.net/DTD/sodipodi-0.dtd"
   xmlns="http://www.w3.org/2000/svg"
   xmlns:svg="http://www.w3.org/2000/svg">
  <sodipodi:namedview
     id="namedview1"
     pagecolor="#ffffff"
     bordercolor="#000000"
     borderopacity="0.25"
     inkscape:showpageshadow="2"
     inkscape:pageopacity="0.0"
     inkscape:pagecheckerboard="0"
     inkscape:deskcolor="#d1d1d1"
     inkscape:document-units="mm"
     inkscape:export-bgcolor="#ffffff00"
     inkscape:zoom="0.79375"
     inkscape:cx="396.85039"
     inkscape:cy="561.25984"
     inkscape:window-width="1920"
     inkscape:window-height="1129"
     inkscape:window-x="-8"
     inkscape:window-y="-8"
     inkscape:window-maximized="1"
     inkscape:current-layer="layer1" />
  <defs
     id="defs1">
    <clipPath
       clipPathUnits="userSpaceOnUse"
       id="clipPath133">
      <path
         d="M 0,841.89 H 595.276 V 0 H 0 Z"
         transform="translate(-321.00591,-570.66401)"
         id="path133" />
    </clipPath>
    <clipPath
       clipPathUnits="userSpaceOnUse"
       id="clipPath131">
      <path
         d="M 0,841.89 H 595.276 V 0 H 0 Z"
         transform="translate(-305.70021,-567.78382)"
         id="path131" />
    </clipPath>
    <clipPath
       clipPathUnits="userSpaceOnUse"
       id="clipPath129">
      <path
         d="M 0,841.89 H 595.276 V 0 H 0 Z"
         transform="translate(-280.39111,-518.72722)"
         id="path129" />
    </clipPath>
    <clipPath
       clipPathUnits="userSpaceOnUse"
       id="clipPath127">
      <path
         d="M 0,841.89 H 595.276 V 0 H 0 Z"
         transform="translate(-333.11521,-540.56171)"
         id="path127" />
    </clipPath>
    <clipPath
       clipPathUnits="userSpaceOnUse"
       id="clipPath125">
      <path
         d="M 0,841.89 H 595.276 V 0 H 0 Z"
         transform="translate(-280.51401,-540.98902)"
         id="path125" />
    </clipPath>
    <clipPath
       clipPathUnits="userSpaceOnUse"
       id="clipPath123">
      <path
         d="M 0,841.89 H 595.276 V 0 H 0 Z"
         transform="translate(-426.34811,-508.79332)"
         id="path123" />
    </clipPath>
    <clipPath
       clipPathUnits="userSpaceOnUse"
       id="clipPath121">
      <path
         d="M 0,841.89 H 595.276 V 0 H 0 Z"
         transform="translate(-409.64911,-504.02332)"
         id="path121" />
    </clipPath>
    <clipPath
       clipPathUnits="userSpaceOnUse"
       id="clipPath119">
      <path
         d="M 0,841.89 H 595.276 V 0 H 0 Z"
         transform="translate(-389.91391,-507.87301)"
         id="path119" />
    </clipPath>
    <clipPath
       clipPathUnits="userSpaceOnUse"
       id="clipPath117">
      <path
         d="M 0,841.89 H 595.276 V 0 H 0 Z"
         transform="translate(-388.06681,-506.74711)"
         id="path117" />
    </clipPath>
    <clipPath
       clipPathUnits="userSpaceOnUse"
       id="clipPath115">
      <path
         d="M 0,841.89 H 595.276 V 0 H 0 Z"
         transform="translate(-357.77521,-490.60891)"
         id="path115" />
    </clipPath>
    <clipPath
       clipPathUnits="userSpaceOnUse"
       id="clipPath113">
      <path
         d="M 0,841.89 H 595.276 V 0 H 0 Z"
         transform="translate(-347.46481,-488.16981)"
         id="path113" />
    </clipPath>
    <clipPath
       clipPathUnits="userSpaceOnUse"
       id="clipPath111">
      <path
         d="M 0,841.89 H 595.276 V 0 H 0 Z"
         transform="translate(-339.38001,-474.07931)"
         id="path111" />
    </clipPath>
    <clipPath
       clipPathUnits="userSpaceOnUse"
       id="clipPath109">
      <path
         d="M 0,841.89 H 595.276 V 0 H 0 Z"
         transform="translate(-322.97401,-471.77331)"
         id="path109" />
    </clipPath>
    <clipPath
       clipPathUnits="userSpaceOnUse"
       id="clipPath107">
      <path
         d="M 0,841.89 H 595.276 V 0 H 0 Z"
         transform="translate(-308.79641,-483.30901)"
         id="path107" />
    </clipPath>
    <clipPath
       clipPathUnits="userSpaceOnUse"
       id="clipPath105">
      <path
         d="M 0,841.89 H 595.276 V 0 H 0 Z"
         transform="translate(-297.19411,-469.90241)"
         id="path105" />
    </clipPath>
    <clipPath
       clipPathUnits="userSpaceOnUse"
       id="clipPath103">
      <path
         d="M 0,841.89 H 595.276 V 0 H 0 Z"
         transform="translate(-280.65511,-469.85511)"
         id="path103" />
    </clipPath>
    <clipPath
       clipPathUnits="userSpaceOnUse"
       id="clipPath101">
      <path
         d="M 0,841.89 H 595.276 V 0 H 0 Z"
         transform="translate(-268.01821,-470.27551)"
         id="path101" />
    </clipPath>
    <clipPath
       clipPathUnits="userSpaceOnUse"
       id="clipPath99">
      <path
         d="M 0,841.89 H 595.276 V 0 H 0 Z"
         transform="translate(-234.23941,-485.90691)"
         id="path99" />
    </clipPath>
    <clipPath
       clipPathUnits="userSpaceOnUse"
       id="clipPath97">
      <path
         d="M 0,841.89 H 595.276 V 0 H 0 Z"
         transform="translate(-215.06901,-478.40501)"
         id="path97" />
    </clipPath>
    <clipPath
       clipPathUnits="userSpaceOnUse"
       id="clipPath95">
      <path
         d="M 0,841.89 H 595.276 V 0 H 0 Z"
         transform="translate(-199.01751,-483.10151)"
         id="path95" />
    </clipPath>
    <clipPath
       clipPathUnits="userSpaceOnUse"
       id="clipPath93">
      <path
         d="M 0,841.89 H 595.276 V 0 H 0 Z"
         transform="translate(-194.95341,-503.49691)"
         id="path93" />
    </clipPath>
    <clipPath
       clipPathUnits="userSpaceOnUse"
       id="clipPath91">
      <path
         d="M 0,841.89 H 595.276 V 0 H 0 Z"
         transform="translate(-177.8928,-511.42981)"
         id="path91" />
    </clipPath>
    <clipPath
       clipPathUnits="userSpaceOnUse"
       id="clipPath89">
      <path
         d="M 0,841.89 H 595.276 V 0 H 0 Z"
         transform="translate(-167.6487,-502.19242)"
         id="path89" />
    </clipPath>
    <clipPath
       clipPathUnits="userSpaceOnUse"
       id="clipPath87">
      <path
         d="M 0,841.89 H 595.276 V 0 H 0 Z"
         transform="translate(-153.94851,-528.18301)"
         id="path87" />
    </clipPath>
    <clipPath
       clipPathUnits="userSpaceOnUse"
       id="clipPath85">
      <path
         d="M 0,841.89 H 595.276 V 0 H 0 Z"
         transform="translate(-164.7202,-633.30152)"
         id="path85" />
    </clipPath>
    <clipPath
       clipPathUnits="userSpaceOnUse"
       id="clipPath83">
      <path
         d="M 0,841.89 H 595.276 V 0 H 0 Z"
         transform="translate(-449.39261,-572.86042)"
         id="path83" />
    </clipPath>
    <clipPath
       clipPathUnits="userSpaceOnUse"
       id="clipPath81">
      <path
         d="M 0,841.89 H 595.276 V 0 H 0 Z"
         transform="translate(-434.06451,-608.86241)"
         id="path81" />
    </clipPath>
    <clipPath
       clipPathUnits="userSpaceOnUse"
       id="clipPath79">
      <path
         d="M 0,841.89 H 595.276 V 0 H 0 Z"
         transform="translate(-447.57521,-569.60212)"
         id="path79" />
    </clipPath>
    <clipPath
       clipPathUnits="userSpaceOnUse"
       id="clipPath77">
      <path
         d="M 0,841.89 H 595.276 V 0 H 0 Z"
         transform="translate(-200.05621,-546.36091)"
         id="path77" />
    </clipPath>
    <clipPath
       clipPathUnits="userSpaceOnUse"
       id="clipPath75">
      <path
         d="M 0,841.89 H 595.276 V 0 H 0 Z"
         transform="matrix(1.3333333,0,0,-1.3333333,0,1122.52)"
         id="path75" />
    </clipPath>
    <clipPath
       clipPathUnits="userSpaceOnUse"
       id="clipPath73">
      <path
         d="m 117.048,575.976 h 64.409 v -47.793 h -64.409 z"
         transform="translate(-175.98921,-534.59281)"
         id="path73" />
    </clipPath>
    <clipPath
       clipPathUnits="userSpaceOnUse"
       id="clipPath72">
      <path
         d="M 0,841.89 H 595.276 V 0 H 0 Z"
         transform="translate(-138.8667,-605.13872)"
         id="path72" />
    </clipPath>
    <clipPath
       clipPathUnits="userSpaceOnUse"
       id="clipPath70">
      <path
         d="M 0,841.89 H 595.276 V 0 H 0 Z"
         transform="translate(-139.62351,-608.02112)"
         id="path70" />
    </clipPath>
    <clipPath
       clipPathUnits="userSpaceOnUse"
       id="clipPath68">
      <path
         d="M 0,841.89 H 595.276 V 0 H 0 Z"
         transform="translate(-173.05401,-622.81762)"
         id="path68" />
    </clipPath>
    <linearGradient
       x1="0"
       y1="0"
       x2="1"
       y2="0"
       gradientUnits="userSpaceOnUse"
       gradientTransform="matrix(100.45661,65.23729,-64.513975,99.992094,8.1961316,32.40304)"
       spreadMethod="pad"
       id="linearGradient66">
      <stop
         style="stop-opacity:1;stop-color:#0083c1"
         offset="0"
         id="stop64" />
      <stop
         style="stop-opacity:1;stop-color:#0083c1"
         offset="0.59152329"
         id="stop65" />
      <stop
         style="stop-opacity:1;stop-color:#94c11f"
         offset="1"
         id="stop66" />
    </linearGradient>
  </defs>
  <g
     inkscape:label="Laag 1"
     inkscape:groupmode="layer"
     id="layer1">
    <path
       id="path66"
       d="M 10.273965,53.047167 C 8.9753896,52.939217 7.6228396,52.877834 6.1905617,52.81257 v 0 C 5.5227537,52.78188 4.8366006,52.75083 4.1246956,52.71414 v 0 l -0.04939,-0.0028 c -1.019881,2.595033 -1.562806,5.299427 -1.562806,8.081433 v 0 c 0,20.074824 28.0003234,36.549897 62.5404434,36.798607 v 0 C 98.384096,97.83127 125.62171,82.872077 127.48755,63.785387 v 0 c -0.45015,0.249766 -0.901,0.497416 -1.34444,0.740127 v 0 c -0.19826,0.108303 -0.39687,0.216959 -0.59478,0.325614 v 0 c -0.0138,0.0374 -0.0282,0.07408 -0.0438,0.111125 v 0 c -0.40746,0.987072 -1.42522,2.187222 -3.95711,2.300464 v 0 c -0.11535,0.0049 -0.24694,0.02646 -0.32843,0.0448 v 0 c -0.48648,0.254705 -0.96132,0.527403 -1.46227,0.814916 v 0 c -0.6925,0.397581 -1.40864,0.808214 -2.21615,1.206853 v 0 c -0.76552,0.377472 -1.57127,0.649111 -2.35055,0.912283 v 0 c -0.27693,0.09349 -0.55351,0.18662 -0.82092,0.283634 v 0 c -0.13264,0.04763 -0.25435,0.08326 -0.35595,0.109714 v 0 c -2.04399,0.95814 -4.08517,1.91805 -6.12634,2.8776 v 0 l -0.009,0.004 c -0.0416,0.0656 -0.0854,0.13052 -0.13158,0.19402 v 0 c -1.10808,1.526833 -2.96791,1.827753 -4.43794,1.931463 v 0 c -2.71039,1.520827 -6.089304,2.391127 -9.362724,3.234977 v 0 c -0.87701,0.22577 -1.78329,0.45966 -2.64231,0.69744 v 0 c -0.26952,0.0748 -0.5401,0.14852 -0.811033,0.2226 v 0 c -0.40429,0.10971 -0.80857,0.22013 -1.20791,0.33337 v 0 c -1.42205,1.65877 -3.2759,1.50319 -4.53708,1.17158 v 0 l -3.39266,0.84808 c -3.92818,0.98142 -7.85742,1.96285 -11.779253,2.95098 v 0 c -0.81068,0.20426 -1.61572,0.30657 -2.41194,0.30657 v 0 c -1.083377,0 -2.149477,-0.18944 -3.188406,-0.56692 v 0 c -0.5461,-0.19861 -1.089731,-0.39828 -1.633714,-0.59831 v 0 c -0.81527,-0.29915 -1.630539,-0.59901 -2.453217,-0.89394 v 0 c -0.160514,-0.0579 -0.316794,-0.11994 -0.472369,-0.18274 v 0 c -0.06491,-0.0264 -0.14605,-0.0593 -0.20567,-0.0818 v 0 c -0.0011,3.5e-4 -0.0021,3.5e-4 -0.0028,7.1e-4 v 0 c -1.402291,0.29315 -2.541058,-0.36936 -3.679825,-1.13489 v 0 c -0.224366,-0.15064 -0.413102,-0.31433 -0.572558,-0.47943 v 0 c -0.170744,-0.0607 -0.341842,-0.12135 -0.512586,-0.18238 v 0 c -1.463322,-0.52035 -2.845153,-1.01142 -4.333875,-1.3776 v 0 c -4.223102,-1.03787 -8.645877,-2.00131 -12.923308,-2.93335 v 0 l -0.5588,-0.12206 c -4.527549,-0.986007 -5.736166,-3.44875 -5.953124,-5.3414 v 0 c -0.0021,-0.0176 -0.0039,-0.0349 -0.0056,-0.0526 v 0 c -1.1049,-1.004353 -1.209675,-2.152292 -1.147233,-2.8328 v 0 c 0.104422,-1.138414 0.688622,-2.022122 1.740606,-2.640189 v 0 c 0.547511,-1.668639 1.904294,-2.9337 3.073399,-3.905955 v 0 l -2.909862,-1.872898 c -1.510242,-0.969786 -2.936875,-1.886302 -4.350456,-2.830688 v 0 c -0.717197,-0.47872 -1.222022,-1.218142 -1.410758,-2.05352 v 0 L 14.970848,52.486956 c -1.661231,0.8128 -3.547886,0.656167 -4.696883,0.560211"
       style="fill:url(#linearGradient66);stroke:none;stroke-width:0.352778;opacity:0.3" />
    <path
       id="path67"
       d="m 0,0 c 0.936,0.172 1.532,0.289 2.138,0.393 10.641,1.834 21.259,3.698 31.941,5.478 2.558,0.427 4.213,0.821 2.754,2.268 -0.388,0.384 -0.381,1.136 0.161,1.4 4.383,2.137 8.938,4.197 13.93,6.507 3.38,-3.642 6.399,-6.834 9.294,-10.05 C 61.192,4.913 62.641,3.738 62.451,2.66 62.225,1.374 63.199,0.989 65.348,0.632 71.53,-0.397 77.674,-1.474 83.832,-2.535 90.691,-3.716 97.547,-4.9 104.912,-6.17 99.42,-9 94.267,-11.544 89.414,-14.207 c -2.192,-1.203 -4.372,-1.583 -7.435,-0.914 -1.854,0.404 -3.192,0.258 -4.383,-0.677 -4.541,-3.561 -9.304,-7.062 -13.935,-10.599 -3.322,-2.539 -6.566,-5.1 -10.039,-7.802 4.965,-1.358 9.407,-2.728 14.151,-3.809 2.533,-0.577 5.65,-0.994 8.394,-0.884 5.148,0.205 10.23,0.815 15.307,1.326 1.1,0.111 2.593,0.395 3.01,0.8 4.764,4.626 12.327,8.836 9.876,14.56 -0.636,1.484 -0.485,3.045 -0.595,4.572 -0.073,1.009 0.034,2.021 0.06,3.031 2.074,-0.144 4.167,-0.244 6.219,-0.439 13.662,-1.297 27.308,-2.63 40.982,-3.9 1.17,-0.108 2.724,-0.008 3.712,0.282 2.525,0.742 4.195,0.67 5.56,-0.665 0.366,-0.358 1.606,-0.669 2.531,-0.733 18.785,-1.3 37.574,-2.587 56.39,-3.785 1.589,-0.101 3.338,0.554 5.07,0.665 1.446,0.092 4.231,-0.022 4.274,-0.177 0.414,-1.463 2.95,-1.559 5.053,-1.877 6.369,-0.965 12.71,-1.996 19.19,-2.765 3.801,-0.451 8.25,-0.151 9.049,-2.698 0.031,-0.1 0.375,-0.178 0.575,-0.265 2.199,-0.957 4.497,-1.869 6.573,-2.881 2.706,-1.319 6.579,-2.526 7.612,-4.113 4.64,-7.126 8.53,-14.361 12.452,-21.586 0.416,-0.766 -0.198,-1.909 -1.252,-2.549 -3.742,-2.274 -7.867,-4.411 -11.876,-6.589 -1.868,-1.015 -4.395,-1.931 -1.626,-3.362 -2.081,-0.262 -4.408,-0.225 -5.509,-0.748 -7.451,-3.542 -13.03,-7.775 -22.39,-10.659 -7.808,-2.406 -13.688,-6.187 -20.271,-9.426 -0.928,-0.456 -0.838,-1.33 -1.521,-1.938 -0.529,-0.47 -2.066,-1.223 -2.238,-1.172 -2.533,0.745 -3.729,-0.121 -5.143,-0.801 -6.091,-2.927 -12.095,-5.856 -20.209,-7.684 -6.262,-1.412 -12.174,-3.166 -18.188,-4.81 -2.755,-0.753 -6.558,-1.214 -4.9,-3.678 -5.067,2.402 -8.388,0.217 -11.909,-0.642 -12.713,-3.101 -25.33,-6.29 -37.887,-9.528 -3.983,-1.027 -7.35,-0.972 -10.894,0.383 -4.544,1.737 -9.334,3.334 -13.925,5.045 -1.755,0.655 -3.423,0.849 -5.392,0.311 -0.392,0.784 -0.209,1.914 -1.267,2.295 -7.653,2.758 -15.088,5.763 -23.501,7.919 -10.613,2.72 -22.066,4.731 -33.2,7.002 -6.914,1.41 -10.272,3.944 -9.938,7.53 0.189,2.033 2.387,4.331 -2.683,5.449 1.426,1.013 3.678,1.875 3.651,2.722 -0.115,3.579 1.94,6.759 6.045,9.745 2.059,1.498 3.56,3.162 5.506,4.697 1.032,0.815 1.432,1.403 -0.315,2.157 -0.458,0.198 0.033,1.148 0.665,1.559 1.005,0.654 2.892,1.044 3.704,1.726 2.183,1.838 4.184,3.736 5.861,5.684 0.662,0.769 0.565,1.754 0.287,2.604 -0.293,0.898 -0.388,1.438 2.009,1.623 1.21,0.093 2.759,0.502 3.31,0.98 4.78,4.151 9.474,8.326 13.886,12.563 0.585,0.562 -0.011,1.938 -0.993,2.213 -4.399,1.233 -9.135,2.203 -14.055,3.339 -8.994,-6.734 -17.783,-13.314 -26.881,-20.127 -3.897,2.487 -7.262,4.888 -11.196,7.066 -3.162,1.75 -4.016,3.333 -0.857,5.21 1.898,1.128 0.698,1.742 -1.654,2.327 -6.267,1.561 -12.435,3.208 -18.621,4.839 -8.306,2.189 -16.592,4.394 -25.091,6.647 -0.985,-0.689 -1.689,-1.314 -2.667,-1.824 -0.746,-0.388 -1.886,-0.924 -2.771,-0.893 -6.462,0.226 -12.904,0.578 -19.953,0.92 3.067,2.659 5.91,4.965 8.419,7.348 1.864,1.771 4.078,2.765 8.506,1.769 1.021,-0.229 2.321,-0.189 3.742,-0.29 0.392,0.732 0.76,1.334 1.035,1.945 1.715,3.805 3.271,7.627 5.183,11.411 0.697,1.38 0.508,2.178 -2.86,2.456 -0.993,0.082 -2.391,0.548 -2.618,0.957 -1.325,2.385 -2.356,4.805 -3.603,7.462 5.586,0.147 10.594,0.219 15.577,0.423 9.117,0.372 8.721,0.789 12.656,-3.12 0.257,-0.396 2.071,-0.503 1.939,-0.495 z"
       style="fill:#0082ca;fill-opacity:1;fill-rule:nonzero;stroke:none;opacity:0.3"
       transform="matrix(0.35277776,0,0,-0.35277776,25.922836,39.763095)"
       clip-path="url(#clipPath68)" />
    <path
       id="path69"
       d="M 0,0 C 0.276,0.206 0.563,0.42 0.878,0.64 L 1.257,0.906 9.383,-1.25 c 5.847,-1.551 11.624,-3.085 17.411,-4.61 l 2.963,-0.782 c 5.106,-1.349 10.386,-2.743 15.645,-4.053 1.655,-0.412 3.155,-0.882 3.332,-2.088 0.166,-1.126 -1.02,-1.83 -1.409,-2.062 -1.398,-0.83 -1.5,-1.329 -1.498,-1.462 0.003,-0.173 0.178,-0.831 2.329,-2.021 2.76,-1.527 5.203,-3.138 7.791,-4.843 0.94,-0.62 1.893,-1.248 2.877,-1.882 l 26.062,19.513 -0.002,0.004 c 1.678,1.306 3.51,2.94 5.281,4.521 1.847,1.648 3.757,3.352 5.479,4.667 l 13.935,10.601 c 1.37,1.074 2.977,1.341 5.199,0.857 2.353,-0.514 4.15,-0.391 5.991,0.439 -1.84,0.317 -3.673,0.633 -5.503,0.949 -6.158,1.06 -12.303,2.138 -18.485,3.166 -2.149,0.357 -3.122,0.743 -2.896,2.028 0.189,1.078 -1.259,2.253 -2.234,3.336 -2.895,3.216 -5.914,6.408 -9.293,10.05 -4.993,-2.31 -9.547,-4.37 -13.931,-6.506 -0.541,-0.264 -0.549,-1.016 -0.16,-1.401 C 69.726,25.725 68.071,25.33 65.513,24.904 54.831,23.123 44.212,21.26 33.572,19.425 32.966,19.321 32.37,19.205 31.434,19.032 l -8.806,-1.549 c 0.132,-0.008 -1.682,0.099 -1.94,0.495 -3.934,3.91 -3.538,3.492 -12.655,3.12 -4.984,-0.203 -9.991,-0.276 -15.577,-0.423 1.247,-2.657 2.278,-5.077 3.602,-7.461 0.228,-0.409 1.626,-0.875 2.619,-0.957 C 2.045,11.979 2.234,11.18 1.536,9.8 -0.376,6.017 -1.931,2.194 -3.646,-1.611 c -0.042,-0.092 -0.098,-0.188 -0.143,-0.28 0.371,0.032 1.014,0.203 2.111,0.775 C -1.075,-0.802 -0.577,-0.43 0,0"
       style="fill:#94d600;fill-opacity:1;fill-rule:nonzero;stroke:none;opacity:0.3"
       transform="matrix(0.35277776,0,0,-0.35277776,14.129299,44.982972)"
       clip-path="url(#clipPath70)" />
    <path
       id="path71"
       d="m 0,0 c 0.745,0.389 1.329,0.824 1.948,1.286 0.148,0.11 0.299,0.223 0.456,0.338 l 7.225,-1.916 c 5.848,-1.553 11.626,-3.086 17.414,-4.612 l 2.962,-0.782 c 5.113,-1.35 10.4,-2.746 15.672,-4.059 0.733,-0.183 1.194,-0.333 1.484,-0.446 -0.031,-0.019 -0.063,-0.039 -0.097,-0.059 -1.681,-0.999 -2.49,-2.047 -2.472,-3.205 0.026,-1.677 1.807,-2.876 3.356,-3.733 2.693,-1.49 5.105,-3.08 7.659,-4.764 1.132,-0.745 2.282,-1.504 3.482,-2.269 l 0.581,-0.371 27.433,20.54 -0.007,0.009 c 1.665,1.313 3.436,2.893 5.152,4.424 1.819,1.623 3.7,3.302 5.36,4.57 l 13.946,10.608 c 0.894,0.701 1.925,0.842 3.556,0.487 3.149,-0.686 5.579,-0.384 8.127,1.015 0.498,0.273 1.006,0.543 1.511,0.815 -1.076,0.186 -2.154,0.371 -3.222,0.556 -1.841,-0.83 -3.638,-0.954 -5.991,-0.44 -2.222,0.484 -3.829,0.217 -5.199,-0.857 L 96.4,6.535 C 94.679,5.219 92.769,3.515 90.922,1.867 89.15,0.287 87.319,-1.348 85.641,-2.653 L 85.643,-2.657 59.581,-22.17 c -0.984,0.633 -1.937,1.262 -2.877,1.881 -2.588,1.706 -5.032,3.316 -7.791,4.843 -2.151,1.191 -2.327,1.848 -2.33,2.021 -10e-4,0.133 0.101,0.632 1.499,1.463 0.389,0.231 1.575,0.936 1.409,2.062 -0.177,1.205 -1.677,1.675 -3.332,2.088 -5.26,1.309 -10.539,2.704 -15.645,4.052 l -2.963,0.782 C 21.764,-1.453 15.987,0.081 10.14,1.632 L 2.014,3.788 1.635,3.522 C 1.32,3.302 1.033,3.088 0.757,2.882 0.18,2.452 -0.318,2.081 -0.921,1.767 -2.018,1.194 -2.662,1.023 -3.032,0.991 c -0.256,-0.519 -0.56,-1.043 -0.893,-1.665 -1.421,0.102 -2.721,0.061 -3.741,0.291 -2.765,0.622 -4.666,0.468 -6.158,-0.166 3.58,-0.175 7.063,-0.334 10.558,-0.456 C -2.124,-1.064 -0.864,-0.451 0,0"
       style="fill:#ffffff;fill-opacity:1;fill-rule:nonzero;stroke:none;opacity:0.3"
       transform="matrix(0.35277776,0,0,-0.35277776,13.862316,45.999819)"
       clip-path="url(#clipPath72)" />
    <g
       opacity="0.440002"
       id="g74"
       clip-path="url(#clipPath75)"
       transform="matrix(0.26458333,0,0,0.26458333,-35.12677,-37.520778)"
       style="opacity:0.3">
      <path
         d="m 0,0 c -2.412,0.407 -10.156,0.806 -11.448,3.61 -2.261,4.609 6.128,5.42 7.581,7.422 2.019,2.515 -1.428,2.987 -4.201,3.585 -1.147,0.247 -1.223,1.628 -0.118,1.989 0.494,0.162 0.96,0.372 1.35,0.731 0.437,0.402 0.41,1.031 -0.019,1.44 -2.018,1.924 -5.821,0.333 -8.304,0.881 -6.453,1.603 1.774,5.008 4.031,5.611 2.742,0.607 8.068,2.41 2.742,4.614 -3.462,1.352 -7.123,1.631 -10.728,1.676 -1.812,0.018 -3.621,-0.075 -5.43,-0.057 -1.827,0.018 -2.247,0.856 -3.883,1.605 -0.84,0.389 -2.119,0.121 -3.029,0.432 1.292,1.895 4.68,0.826 7.047,0.944 1.534,0.076 1.448,2.14 -0.088,2.09 -1.839,-0.06 -4.162,-1.143 -5.14,-1.469 -0.443,-0.143 -0.896,-0.238 -1.345,-0.296 0.099,0.23 0.18,0.5 0.228,0.821 0.214,0.995 0.11,0.56 -0.216,1.661 -0.322,0.878 -1.074,0.439 -0.427,1.436 0.427,0.555 3.011,0.662 2.47,1.765 -0.105,0.336 -2.229,0.856 -2.551,0.856 -2.905,0.318 -5.596,-1.607 -8.805,-0.119 -0.226,0.105 -0.484,0.166 -0.737,0.132 -1.15,-0.151 -1.847,-0.526 -3.176,-0.312 -0.86,0.134 -1.852,-0.072 -2.804,-0.423 -0.997,-0.368 -0.934,-1.629 0.091,-1.935 0.511,-0.152 0.913,-0.345 0.991,-0.626 0.108,-0.406 -0.178,-0.689 -0.632,-0.915 -1.078,-0.535 -0.721,-1.931 0.521,-1.968 1.483,-0.045 3.021,0.121 4.305,0.121 0.86,0 2.582,0.217 3.23,-0.666 0.38,-0.502 0.371,-1.006 0.118,-1.382 -0.118,-0.175 -0.304,-0.309 -0.521,-0.387 -2.512,-0.909 -8.889,-0.374 -10.095,-0.374 -2.161,0 -6.313,0.797 -9.047,0.213 -0.971,-0.207 -1.233,-1.344 -0.414,-1.842 1.823,-1.108 4.666,-1.203 6.283,-1.641 3.059,-0.83 6.426,-0.36 9.561,-0.947 3.271,-0.609 6.568,-1.209 9.872,-1.199 1.077,0.003 3.669,0.158 5.499,-0.313 1.03,-0.266 1.208,-1.458 0.274,-1.917 -0.895,-0.439 -1.824,-0.875 -2.659,-1.429 -0.607,-0.403 -0.607,-1.217 -0.004,-1.626 1.745,-1.181 4.179,-1.332 5.964,-1.825 1.381,-0.374 2.475,-1.336 3.784,-1.893 0.181,-0.075 0.353,-0.112 0.516,-0.135 0.843,-0.121 1.334,-0.916 0.907,-1.555 -1.458,-2.18 1.062,-1.615 3.098,-2.536 1.546,-0.703 2.852,-1.678 1.782,-3.572 -1.168,-2.071 -7.356,-3.714 -7.232,-6.463 0.069,-1.604 4.657,-2.699 5.687,-3.163 2.346,-1.049 4.906,-1.637 7.364,-2.191 1.262,-0.286 6.353,0.272 8.562,-0.686 C 1.494,-2.526 1.679,-3.289 1.208,-3.816 0.546,-4.557 0.002,-5.559 0.974,-6.41 l 0.319,0.197 c 0.748,1.984 1.986,2.048 3.205,2.266 0.999,0.178 1.31,1.262 0.536,1.835 C 3.507,-0.981 1.753,-0.307 0,0"
         style="fill:#ffffff;fill-opacity:1;fill-rule:nonzero;stroke:none"
         transform="matrix(1.3333333,0,0,-1.3333333,234.65227,409.7296)"
         clip-path="url(#clipPath73)"
         id="path74" />
    </g>
    <path
       id="path76"
       d="m 0,0 c -0.277,-3.004 2.775,-5.185 9.072,-6.481 2.973,-0.613 5.969,-1.206 8.966,-1.8 8.018,-1.589 16.309,-3.232 24.034,-5.232 6.622,-1.714 12.707,-3.984 18.591,-6.18 1.606,-0.599 3.211,-1.199 4.825,-1.786 1.145,-0.417 1.442,-1.4 1.6,-2.062 1.662,0.293 3.246,0.113 5.019,-0.555 2.04,-0.768 4.119,-1.513 6.198,-2.258 2.524,-0.903 5.133,-1.838 7.63,-2.802 3.214,-1.241 6.361,-1.349 10.203,-0.349 3.601,0.938 7.195,1.918 10.795,2.9 8.737,2.383 17.772,4.847 26.863,6.664 1.285,0.256 2.212,0.533 3.031,0.777 1.947,0.58 3.232,0.962 6.014,-0.135 0.198,-0.076 0.424,-0.005 0.563,0.18 1.356,1.82 5.705,3.134 7.006,3.493 1.428,0.394 2.852,0.795 4.276,1.196 4.458,1.256 9.068,2.555 13.818,3.636 6.226,1.417 11.211,3.975 16.032,6.448 1.303,0.669 2.589,1.328 3.876,1.953 1.286,0.624 3.317,1.352 6.187,0.566 0.21,0.076 0.596,0.262 0.843,0.484 0.137,0.123 0.225,0.294 0.355,0.564 0.23,0.471 0.544,1.116 1.377,1.53 2.382,1.184 4.757,2.675 7.271,4.254 4.3,2.702 8.746,5.495 13.741,7.049 8.468,2.635 13.133,4.883 19.591,7.995 l 1.751,0.843 c 0.898,0.431 2.216,0.534 3.742,0.651 -0.037,0.137 -0.058,0.281 -0.058,0.435 0.001,1.261 1.368,1.973 2.69,2.661 0.222,0.115 0.445,0.231 0.659,0.348 0.921,0.506 1.848,1.009 2.775,1.513 1.992,1.08 4.022,2.188 5.992,3.314 -2.414,4.33 -4.927,8.647 -7.712,12.925 -1.033,1.586 -4.906,2.794 -7.612,4.113 -2.076,1.011 -4.374,1.924 -6.573,2.88 -0.2,0.088 -0.544,0.166 -0.575,0.265 -0.799,2.548 -5.247,2.247 -9.049,2.698 -6.48,0.769 -12.821,1.8 -19.19,2.765 -2.103,0.319 -4.639,0.415 -5.052,1.878 -0.044,0.155 -2.828,0.269 -4.275,0.176 -1.732,-0.11 -3.481,-0.765 -5.07,-0.664 -18.816,1.197 -37.605,2.484 -56.39,3.785 -0.925,0.064 -2.165,0.374 -2.531,0.732 -1.365,1.336 -3.035,1.408 -5.56,0.666 -0.988,-0.291 -2.542,-0.391 -3.712,-0.282 -13.673,1.27 -27.32,2.602 -40.982,3.9 -2.052,0.194 -4.145,0.295 -6.218,0.439 -0.027,-1.011 -0.134,-2.022 -0.061,-3.031 0.11,-1.527 -0.041,-3.089 0.595,-4.573 2.451,-5.723 -5.112,-9.933 -9.875,-14.559 -0.417,-0.405 -1.911,-0.689 -3.011,-0.8 -5.077,-0.511 -10.159,-1.122 -15.307,-1.327 -2.744,-0.109 -5.861,0.307 -8.394,0.884 -4.744,1.081 -9.186,2.452 -14.15,3.81 3.472,2.702 6.716,5.263 10.039,7.801 4.63,3.538 9.393,7.038 13.934,10.6 1.191,0.934 2.529,1.081 4.383,0.676 3.064,-0.668 5.244,-0.288 7.435,0.915 4.853,2.663 10.006,5.206 15.498,8.036 -4.258,0.735 -8.338,1.439 -12.354,2.132 -0.505,-0.272 -1.013,-0.542 -1.512,-0.816 -2.547,-1.398 -4.977,-1.7 -8.127,-1.014 -1.63,0.355 -2.661,0.214 -3.556,-0.487 L 36.418,63.729 c -1.66,-1.269 -3.541,-2.947 -5.36,-4.57 -1.715,-1.531 -3.487,-3.112 -5.151,-4.424 L 25.914,54.726 -1.519,34.186 -2.1,34.557 c -1.2,0.765 -2.351,1.524 -3.482,2.269 -2.554,1.684 -4.967,3.274 -7.66,4.763 -1.549,0.858 -3.33,2.057 -3.355,3.734 -0.018,1.157 0.79,2.206 2.472,3.204 0.034,0.021 0.066,0.04 0.096,0.059 -0.289,0.114 -0.75,0.264 -1.483,0.447 -5.273,1.313 -10.559,2.709 -15.672,4.059 l -2.962,0.782 c -5.788,1.526 -11.566,3.059 -17.414,4.611 l -7.225,1.917 c -0.157,-0.115 -0.309,-0.228 -0.457,-0.338 -0.618,-0.462 -1.203,-0.897 -1.947,-1.286 -0.864,-0.451 -2.124,-1.064 -3.267,-1.006 -3.494,0.122 -6.977,0.282 -10.557,0.456 -0.898,-0.381 -1.649,-0.937 -2.349,-1.602 -2.509,-2.383 -5.352,-4.69 -8.419,-7.348 7.049,-0.342 13.491,-0.695 19.953,-0.92 0.885,-0.031 2.026,0.504 2.771,0.893 0.978,0.51 1.682,1.134 2.667,1.824 8.499,-2.253 16.785,-4.459 25.091,-6.648 6.186,-1.63 12.354,-3.278 18.621,-4.838 2.352,-0.586 3.553,-1.2 1.655,-2.327 -3.16,-1.878 -2.306,-3.461 0.857,-5.211 3.933,-2.177 7.298,-4.578 11.195,-7.065 9.098,6.812 17.887,13.393 26.881,20.127 4.92,-1.136 9.656,-2.107 14.055,-3.339 0.982,-0.275 1.578,-1.651 0.993,-2.213 -4.412,-4.238 -9.106,-8.413 -13.886,-12.563 -0.55,-0.478 -2.1,-0.888 -3.31,-0.981 -2.397,-0.184 -2.302,-0.725 -2.009,-1.623 0.278,-0.849 0.375,-1.835 -0.287,-2.603 C 17.789,19.843 15.789,17.944 13.605,16.107 12.793,15.424 10.906,15.035 9.901,14.38 9.269,13.969 8.778,13.02 9.236,12.822 10.984,12.068 10.583,11.479 9.551,10.665 7.605,9.129 6.104,7.466 4.045,5.968 2.665,4.964 1.537,3.935 0.625,2.88 0.599,2.272 0.429,1.684 0.275,1.165 0.15,0.744 0.032,0.347 0,0"
       style="fill:#94d600;fill-opacity:1;fill-rule:nonzero;stroke:none;opacity:0.3"
       transform="matrix(0.35277776,0,0,-0.35277776,35.448611,66.735321)"
       clip-path="url(#clipPath77)" />
    <path
       id="path78"
       d="m 0,0 c -0.227,-0.124 -0.463,-0.247 -0.698,-0.369 -0.464,-0.242 -1.187,-0.618 -1.507,-0.888 0.104,-0.084 0.281,-0.205 0.573,-0.357 L 1.186,-3.083 -1.967,-3.485 C -2.66,-3.573 -3.38,-3.629 -4.074,-3.682 -5.298,-3.776 -6.563,-3.873 -7.13,-4.145 l -1.748,-0.841 c -6.534,-3.149 -11.256,-5.424 -19.863,-8.103 -4.747,-1.477 -9.082,-4.201 -13.274,-6.833 -2.557,-1.607 -4.972,-3.124 -7.443,-4.351 -0.215,-0.107 -0.289,-0.243 -0.473,-0.619 -0.171,-0.35 -0.382,-0.785 -0.814,-1.173 -0.369,-0.332 -1.712,-1.217 -2.521,-0.976 -2.286,0.679 -3.796,0.187 -4.972,-0.385 -1.273,-0.618 -2.545,-1.271 -3.836,-1.933 -4.93,-2.53 -10.029,-5.146 -16.499,-6.619 -4.7,-1.069 -9.285,-2.361 -13.72,-3.61 -1.427,-0.402 -2.853,-0.804 -4.287,-1.2 -2.83,-0.781 -5.328,-1.943 -5.94,-2.762 -0.672,-0.902 -1.857,-1.25 -2.888,-0.843 -2.142,0.844 -2.841,0.637 -4.715,0.079 -0.817,-0.244 -1.835,-0.547 -3.209,-0.821 -9.024,-1.804 -18.025,-4.259 -26.73,-6.633 -3.607,-0.984 -7.209,-1.966 -10.817,-2.906 -1.903,-0.495 -3.657,-0.744 -5.339,-0.744 -2.092,0 -4.072,0.385 -6.084,1.162 -2.474,0.956 -5.072,1.886 -7.583,2.786 -2.09,0.749 -4.179,1.497 -6.229,2.269 -1.708,0.643 -3.124,0.729 -4.735,0.284 l -0.793,-0.219 -0.365,0.738 c -0.174,0.352 -0.258,0.712 -0.332,1.031 -0.146,0.63 -0.205,0.714 -0.373,0.775 -1.62,0.59 -3.229,1.19 -4.841,1.792 -5.836,2.178 -11.871,4.43 -18.393,6.118 -7.669,1.985 -15.932,3.622 -23.923,5.206 -3.001,0.595 -6.002,1.189 -8.98,1.802 -6.171,1.271 -9.682,3.48 -10.492,6.573 -0.123,-0.628 -0.199,-1.264 -0.178,-1.918 0.027,-0.846 -2.225,-1.709 -3.651,-2.722 5.071,-1.117 2.872,-3.416 2.683,-5.449 -0.334,-3.586 3.024,-6.12 9.938,-7.53 11.134,-2.27 22.587,-4.282 33.2,-7.002 8.413,-2.155 15.848,-5.16 23.501,-7.918 1.058,-0.382 0.875,-1.512 1.267,-2.295 1.97,0.538 3.637,0.343 5.392,-0.312 4.591,-1.711 9.381,-3.308 13.925,-5.045 3.544,-1.355 6.911,-1.409 10.894,-0.382 12.557,3.237 25.174,6.426 37.887,9.527 3.521,0.859 6.842,3.044 11.909,0.643 -1.658,2.463 2.145,2.924 4.9,3.678 6.014,1.644 11.926,3.398 18.188,4.809 8.114,1.829 14.119,4.757 20.209,7.685 1.414,0.68 2.61,1.545 5.143,0.8 0.172,-0.05 1.709,0.702 2.238,1.173 0.683,0.607 0.593,1.481 1.521,1.938 6.583,3.238 12.463,7.019 20.271,9.425 9.36,2.884 14.939,7.117 22.39,10.659 1.101,0.524 3.428,0.486 5.509,0.749 -2.769,1.43 -0.242,2.347 1.626,3.361 4.009,2.178 8.134,4.316 11.876,6.59 1.054,0.64 1.668,1.782 1.252,2.549 C 11.296,0.218 10.045,2.526 8.774,4.831 6.795,3.699 4.761,2.59 2.768,1.507 1.843,1.006 0.918,0.504 0,0"
       style="fill:#94d600;fill-opacity:1;fill-rule:nonzero;stroke:none;opacity:0.3"
       transform="matrix(0.35277776,0,0,-0.35277776,122.76781,58.536341)"
       clip-path="url(#clipPath79)" />
    <path
       id="path80"
       d="M 0,0 C 0.002,-0.005 0.003,-0.01 0.005,-0.015 0.003,-0.01 0.002,-0.005 0,0 m -34.947,6.781 c 0.001,-0.003 0.002,-0.006 0.002,-0.009 0,0.003 -10e-4,0.006 -0.002,0.009"
       style="fill:#ffffff;fill-opacity:1;fill-rule:nonzero;stroke:none;opacity:0.3"
       transform="matrix(0.35277776,0,0,-0.35277776,118.00154,44.686181)"
       clip-path="url(#clipPath81)" />
    <path
       id="path82"
       d="m 0,0 c -0.928,-0.503 -1.854,-1.007 -2.775,-1.512 -0.214,-0.117 -0.438,-0.233 -0.66,-0.349 -1.322,-0.688 -2.688,-1.399 -2.689,-2.66 0,-0.154 0.02,-0.299 0.058,-0.436 -1.527,-0.116 -2.844,-0.219 -3.743,-0.65 L -11.56,-6.45 c -6.458,-3.112 -11.123,-5.36 -19.59,-7.996 -4.996,-1.554 -9.442,-4.347 -13.742,-7.048 -2.513,-1.579 -4.888,-3.07 -7.27,-4.254 -0.833,-0.414 -1.148,-1.06 -1.377,-1.53 -0.131,-0.27 -0.219,-0.442 -0.356,-0.565 -0.247,-0.221 -0.632,-0.407 -0.842,-0.484 -2.87,0.787 -4.902,0.059 -6.188,-0.566 -1.287,-0.625 -2.572,-1.284 -3.876,-1.953 -4.82,-2.473 -9.805,-5.03 -16.031,-6.447 -4.75,-1.082 -9.36,-2.38 -13.818,-3.636 -1.424,-0.401 -2.848,-0.802 -4.277,-1.197 -1.301,-0.359 -5.649,-1.672 -7.006,-3.492 -0.138,-0.185 -0.365,-0.257 -0.562,-0.181 -2.782,1.097 -4.068,0.715 -6.015,0.135 -0.818,-0.243 -1.746,-0.52 -3.03,-0.776 -9.092,-1.818 -18.126,-4.282 -26.863,-6.665 -3.6,-0.981 -7.195,-1.962 -10.795,-2.899 -3.843,-1.001 -6.989,-0.893 -10.203,0.348 -2.498,0.965 -5.107,1.899 -7.63,2.803 -2.079,0.745 -4.158,1.49 -6.198,2.258 -1.773,0.668 -3.357,0.847 -5.019,0.555 -0.158,0.661 -0.456,1.645 -1.6,2.061 -1.615,0.588 -3.22,1.187 -4.826,1.787 -5.884,2.195 -11.968,4.466 -18.59,6.18 -7.725,2 -16.017,3.642 -24.035,5.231 -2.996,0.594 -5.992,1.187 -8.965,1.8 -6.297,1.297 -9.349,3.478 -9.072,6.481 0.031,0.347 0.149,0.744 0.274,1.165 0.155,0.519 0.325,1.108 0.351,1.715 -1.305,-1.511 -2.123,-3.084 -2.447,-4.739 0.81,-3.094 4.321,-5.302 10.492,-6.573 2.978,-0.613 5.979,-1.208 8.98,-1.802 7.991,-1.584 16.253,-3.221 23.923,-5.206 6.522,-1.688 12.556,-3.94 18.392,-6.119 1.612,-0.601 3.222,-1.202 4.842,-1.792 0.168,-0.061 0.226,-0.145 0.373,-0.774 0.073,-0.319 0.157,-0.68 0.332,-1.032 l 0.365,-0.737 0.792,0.219 c 1.611,0.445 3.027,0.359 4.736,-0.284 2.05,-0.772 4.139,-1.52 6.228,-2.269 2.512,-0.9 5.11,-1.83 7.584,-2.786 2.012,-0.777 3.992,-1.163 6.084,-1.163 1.681,0 3.436,0.249 5.339,0.745 3.607,0.939 7.21,1.922 10.816,2.906 8.705,2.374 17.706,4.829 26.731,6.632 1.374,0.275 2.391,0.578 3.209,0.822 1.874,0.558 2.573,0.765 4.714,-0.079 1.032,-0.407 2.216,-0.059 2.889,0.842 0.611,0.82 3.109,1.981 5.94,2.763 1.433,0.396 2.86,0.797 4.287,1.2 4.434,1.249 9.019,2.54 13.719,3.61 6.471,1.473 11.57,4.089 16.499,6.618 1.291,0.662 2.564,1.315 3.836,1.933 1.177,0.572 2.687,1.064 4.973,0.386 0.809,-0.241 2.151,0.644 2.52,0.975 0.433,0.389 0.644,0.824 0.815,1.174 0.184,0.376 0.258,0.511 0.473,0.618 2.47,1.228 4.885,2.745 7.443,4.351 4.191,2.633 8.526,5.356 13.273,6.834 8.608,2.679 13.33,4.954 19.864,8.102 l 1.748,0.842 c 0.566,0.272 1.832,0.369 3.055,0.463 0.695,0.053 1.414,0.108 2.108,0.197 l 3.152,0.401 -2.817,1.469 c -0.292,0.153 -0.469,0.273 -0.573,0.358 0.32,0.269 1.043,0.646 1.506,0.888 0.236,0.122 0.472,0.245 0.699,0.369 0.918,0.504 1.842,1.006 2.767,1.507 1.994,1.082 4.027,2.192 6.007,3.324 C 6.636,2.154 6.315,2.734 5.991,3.315 4.022,2.188 1.991,1.081 0,0"
       style="fill:#ffffff;fill-opacity:1;fill-rule:nonzero;stroke:none;opacity:0.3"
       transform="matrix(0.35277776,0,0,-0.35277776,123.40895,57.386885)"
       clip-path="url(#clipPath83)" />
    <path
       id="path84"
       d="M 0,0 -1.43,0.104 -2.973,1.303 C -5.942,3.878 -6.071,3.994 -12.012,3.723 -12.728,3.69 -13.52,3.654 -14.399,3.618 -17.807,3.479 -21.215,3.401 -24.823,3.319 -26.499,3.281 -28.215,3.241 -29.99,3.195 l -0.048,1.837 c 1.777,0.046 3.495,0.086 5.173,0.124 3.599,0.082 6.999,0.16 10.39,0.298 0.877,0.036 1.665,0.072 2.378,0.105 6.923,0.317 7.229,0.22 10.963,-3.491 L -1.132,2.066 C -0.927,1.984 -0.383,1.888 0.112,1.847 l 9.541,1.687 c 0.493,0.091 0.891,0.166 1.293,0.235 l 8.288,1.433 c 7.742,1.341 15.747,2.728 23.658,4.046 0.542,0.091 1.854,0.309 2.407,0.548 -0.038,0.046 -0.088,0.099 -0.15,0.16 -0.417,0.414 -0.616,1.038 -0.518,1.627 0.092,0.555 0.429,1.012 0.924,1.253 3.342,1.629 6.786,3.214 10.432,4.893 l 4.12,1.901 0.454,-0.489 c 0.971,-1.046 1.912,-2.056 2.829,-3.039 2.266,-2.429 4.406,-4.724 6.474,-7.021 0.187,-0.208 0.392,-0.419 0.6,-0.632 C 71.443,7.44 72.553,6.296 72.319,4.971 72.307,4.898 72.282,4.722 72.329,4.656 72.484,4.436 73.202,4.218 74.462,4.009 79.082,3.24 83.681,2.444 88.28,1.648 l 20.555,-3.546 -0.312,-1.811 -20.556,3.547 C 83.372,0.633 78.776,1.428 74.16,2.195 72.479,2.475 71.395,2.793 70.829,3.594 70.5,4.057 70.393,4.628 70.509,5.289 70.58,5.69 69.682,6.616 69.145,7.168 68.921,7.399 68.7,7.627 68.498,7.851 c -2.057,2.286 -4.192,4.574 -6.452,6.998 -0.775,0.83 -1.567,1.679 -2.379,2.554 L 56.756,16.059 C 53.164,14.406 49.769,12.843 46.483,11.244 47.155,10.54 47.394,9.874 47.193,9.243 46.836,8.122 45.378,7.799 43.193,7.435 35.289,6.118 27.287,4.732 19.547,3.391 L 11.258,1.957 C 10.863,1.89 10.474,1.817 9.991,1.727 L 9.13,1.567 0.317,0.016 Z m 270.674,-26.242 c 0.001,-0.005 0.003,-0.011 0.005,-0.016 -0.002,0.005 -0.004,0.011 -0.005,0.016 m 13.116,-8.051 c -0.593,0.913 -2.812,1.856 -4.769,2.688 -0.838,0.356 -1.703,0.725 -2.474,1.1 -1.412,0.688 -2.966,1.345 -4.469,1.981 -0.693,0.293 -1.385,0.586 -2.068,0.883 -0.042,0.019 -0.095,0.035 -0.147,0.053 -0.312,0.108 -0.782,0.27 -0.94,0.786 -0.448,1.427 -3.204,1.636 -5.869,1.838 -0.805,0.061 -1.621,0.123 -2.409,0.216 -5.206,0.618 -10.397,1.415 -15.418,2.187 l -3.802,0.582 c -0.299,0.045 -0.606,0.086 -0.916,0.127 -1.821,0.241 -3.86,0.51 -4.65,1.86 -0.75,0.07 -2.454,0.129 -3.566,0.059 -0.68,-0.044 -1.4,-0.186 -2.097,-0.323 -1.014,-0.201 -2.056,-0.407 -3.089,-0.342 -17.78,1.132 -35.403,2.332 -56.395,3.785 -0.78,0.055 -2.434,0.331 -3.11,0.993 -0.877,0.859 -1.963,1.232 -4.659,0.44 -1.052,-0.309 -2.719,-0.439 -4.056,-0.314 -8.774,0.814 -17.538,1.655 -26.302,2.496 -4.893,0.469 -9.786,0.938 -14.681,1.403 -1.283,0.122 -1.76,0.149 -2.459,0.189 -0.411,0.023 -0.898,0.051 -1.662,0.104 l 0.127,1.833 c 0.754,-0.052 1.234,-0.079 1.64,-0.102 0.718,-0.041 1.209,-0.069 2.528,-0.194 4.895,-0.465 9.789,-0.935 14.683,-1.404 8.762,-0.841 17.524,-1.681 26.296,-2.495 1.113,-0.105 2.528,0 3.367,0.248 2.113,0.621 4.532,1 6.463,-0.891 0.186,-0.141 1.1,-0.413 1.952,-0.472 20.989,-1.453 38.609,-2.653 56.385,-3.785 0.779,-0.047 1.676,0.125 2.616,0.311 0.755,0.149 1.535,0.303 2.336,0.354 1.465,0.093 4.89,0.311 5.218,-0.842 0.189,-0.671 2.02,-0.913 3.356,-1.089 0.321,-0.042 0.64,-0.085 0.951,-0.132 l 3.805,-0.582 c 5.006,-0.769 10.181,-1.565 15.356,-2.179 0.762,-0.09 1.551,-0.15 2.33,-0.209 3.109,-0.235 6.318,-0.477 7.342,-2.743 0.074,-0.026 0.146,-0.053 0.209,-0.08 0.677,-0.295 1.364,-0.586 2.05,-0.876 1.526,-0.645 3.103,-1.313 4.559,-2.022 0.729,-0.355 1.572,-0.714 2.388,-1.06 2.413,-1.026 4.691,-1.995 5.592,-3.377 z"
       style="fill:#0082ca;fill-opacity:1;fill-rule:nonzero;stroke:none;opacity:0.3"
       transform="matrix(0.35277776,0,0,-0.35277776,22.982854,36.064609)"
       clip-path="url(#clipPath85)" />
    <path
       id="path86"
       d="m 0,0 3.032,-2.57 -4.716,-5.081 2.841,-2.409 4.716,5.079 3.032,-2.571 -12.349,-13.3 -3.031,2.572 5.22,5.622 -2.819,2.391 -5.22,-5.623 -3.055,2.591 z"
       style="fill:#ffffff;fill-opacity:1;fill-rule:nonzero;stroke:none;opacity:0.3"
       transform="matrix(0.35277776,0,0,-0.35277776,19.18284,73.148077)"
       clip-path="url(#clipPath87)" />
    <path
       id="path88"
       d="m 0,0 c -0.962,-1.394 -2.159,-2.211 -3.59,-2.452 -1.431,-0.241 -2.928,0.131 -4.491,1.116 -1.621,1.022 -2.586,2.215 -2.897,3.582 -0.309,1.366 0.061,2.81 1.11,4.332 L -2.684,16.989 0.725,14.84 -6.106,4.94 C -6.587,4.242 -6.814,3.615 -6.785,3.057 c 0.029,-0.558 0.302,-1 0.821,-1.327 0.484,-0.305 0.991,-0.363 1.523,-0.176 0.532,0.187 1.01,0.591 1.436,1.208 l 6.938,10.056 3.423,-2.157 z"
       style="fill:#ffffff;fill-opacity:1;fill-rule:nonzero;stroke:none;opacity:0.3"
       transform="matrix(0.35277776,0,0,-0.35277776,24.015965,82.316987)"
       clip-path="url(#clipPath89)" />
    <path
       id="path90"
       d="m 0,0 3.565,-1.844 -8.86,-15.637 -3.565,1.845 z"
       style="fill:#ffffff;fill-opacity:1;fill-rule:nonzero;stroke:none;opacity:0.3"
       transform="matrix(0.35277776,0,0,-0.35277776,27.629856,79.058237)"
       clip-path="url(#clipPath91)" />
    <path
       id="path92"
       d="m 0,0 -12.454,-10.301 4.884,-2.126 -1.506,-3.161 -10.03,4.365 0.241,0.505 11.987,9.895 -5.49,2.389 1.506,3.162 z"
       style="fill:#ffffff;fill-opacity:1;fill-rule:nonzero;stroke:none;opacity:0.3"
       transform="matrix(0.35277776,0,0,-0.35277776,33.648457,81.856787)"
       clip-path="url(#clipPath93)" />
    <path
       id="path94"
       d="M 0,0 -8.764,3.122 -2.266,19.784 5.95,16.857 4.696,13.643 0.25,15.226 -1.071,11.838 2.741,10.479 1.534,7.384 -2.278,8.742 -3.714,5.061 1.28,3.282 Z"
       style="fill:#ffffff;fill-opacity:1;fill-rule:nonzero;stroke:none;opacity:0.3"
       transform="matrix(0.35277776,0,0,-0.35277776,35.082181,89.051827)"
       clip-path="url(#clipPath95)" />
    <path
       id="path96"
       d="m 0,0 -4.103,1.16 -1.247,12.053 -0.058,0.016 -3.331,-10.757 -3.772,1.067 5.289,17.078 4.247,-1.202 1.225,-11.868 0.073,-0.02 3.28,10.594 3.686,-1.043 z"
       style="fill:#ffffff;fill-opacity:1;fill-rule:nonzero;stroke:none;opacity:0.3"
       transform="matrix(0.35277776,0,0,-0.35277776,40.744794,90.708657)"
       clip-path="url(#clipPath97)" />
    <path
       id="path98"
       d="M 0,0 C 1.069,0.355 1.689,0.952 1.856,1.791 1.946,2.238 1.901,2.625 1.722,2.953 1.543,3.281 1.267,3.478 0.893,3.546 0.52,3.615 0.18,3.549 -0.124,3.349 -0.43,3.149 -0.62,2.862 -0.694,2.49 -0.778,2.07 -0.547,1.239 0,0 m 0.047,-7.937 -1.831,3.987 c -1.153,-0.514 -1.805,-1.149 -1.956,-1.904 -0.095,-0.475 0.041,-0.979 0.408,-1.509 0.368,-0.532 0.832,-0.848 1.392,-0.95 0.511,-0.094 1.173,0.032 1.987,0.376 m 7.33,0.5 C 7.12,-7.651 6.178,-8.281 4.553,-9.327 l 1.464,-3.297 -4.158,0.761 -0.472,1.072 c -1.63,-0.601 -3.166,-0.769 -4.612,-0.505 -1.474,0.27 -2.625,0.973 -3.452,2.11 -0.828,1.136 -1.102,2.399 -0.824,3.788 0.319,1.595 1.808,2.974 4.467,4.14 -0.809,1.916 -1.111,3.388 -0.905,4.413 0.213,1.062 0.818,1.875 1.818,2.436 0.999,0.561 2.142,0.724 3.43,0.489 C 2.665,5.832 3.7,5.278 4.415,4.418 5.13,3.557 5.376,2.572 5.154,1.463 4.833,-0.14 3.62,-1.541 1.515,-2.741 l 1.681,-3.67 c 0.976,0.604 1.785,1.161 2.427,1.671 z"
       style="fill:#94d600;fill-opacity:1;fill-rule:nonzero;stroke:none;opacity:0.3"
       transform="matrix(0.35277776,0,0,-0.35277776,47.507684,88.062147)"
       clip-path="url(#clipPath99)" />
    <path
       id="path100"
       d="m 0,0 -3.844,0.351 0.538,14.566 -0.06,0.005 -4.286,-14.223 -2.87,0.261 -1.259,14.816 -0.06,0.005 -2.486,-14.474 -3.847,0.352 3.697,17.524 5.079,-0.464 0.885,-11.85 0.059,-0.005 3.399,11.459 5.016,-0.458 z"
       style="fill:#ffffff;fill-opacity:1;fill-rule:nonzero;stroke:none;opacity:0.3"
       transform="matrix(0.35277776,0,0,-0.35277776,59.424094,93.576557)"
       clip-path="url(#clipPath101)" />
    <path
       id="path102"
       d="M 0,0 -9.347,0.351 -8.617,18.118 0.145,17.789 0.004,14.361 -4.737,14.539 -4.885,10.926 -0.82,10.774 -0.955,7.473 -5.021,7.625 -5.182,3.7 0.144,3.499 Z"
       style="fill:#ffffff;fill-opacity:1;fill-rule:nonzero;stroke:none;opacity:0.3"
       transform="matrix(0.35277776,0,0,-0.35277776,63.882111,93.724867)"
       clip-path="url(#clipPath103)" />
    <path
       id="path104"
       d="m 0,0 -4.279,-0.039 -4.887,11.173 h -0.061 l 0.113,-11.218 -3.933,-0.037 -0.18,17.809 4.428,0.041 4.813,-11.004 0.075,0.001 -0.113,11.048 3.843,0.035 z"
       style="fill:#ffffff;fill-opacity:1;fill-rule:nonzero;stroke:none;opacity:0.3"
       transform="matrix(0.35277776,0,0,-0.35277776,69.7167,93.708177)"
       clip-path="url(#clipPath105)" />
    <path
       id="path106"
       d="M 0,0 C -1.142,1.125 -2.202,1.66 -3.18,1.605 -3.621,1.581 -4.005,1.421 -4.332,1.127 -4.661,0.833 -4.814,0.515 -4.793,0.175 c 0.037,-0.617 0.626,-1.316 1.767,-2.098 1.192,-0.799 2.042,-1.433 2.552,-1.904 0.51,-0.47 0.931,-1.034 1.263,-1.69 0.33,-0.657 0.52,-1.383 0.569,-2.179 0.095,-1.563 -0.353,-2.876 -1.346,-3.94 -0.993,-1.063 -2.318,-1.641 -3.977,-1.733 -1.359,-0.076 -2.716,0.309 -4.071,1.155 l -0.256,4.193 c 1.327,-1.219 2.615,-1.793 3.864,-1.724 0.56,0.032 1.018,0.205 1.375,0.519 0.357,0.315 0.523,0.685 0.496,1.112 -0.038,0.634 -0.561,1.313 -1.568,2.037 -1.606,1.165 -2.664,2.041 -3.176,2.625 -0.513,0.584 -0.905,1.18 -1.178,1.788 -0.271,0.607 -0.428,1.228 -0.467,1.864 -0.084,1.364 0.352,2.519 1.307,3.467 0.955,0.946 2.211,1.463 3.771,1.55 1.178,0.066 2.376,-0.19 3.595,-0.768 z"
       style="fill:#ffffff;fill-opacity:1;fill-rule:nonzero;stroke:none;opacity:0.3"
       transform="matrix(0.35277776,0,0,-0.35277776,73.809733,88.978627)"
       clip-path="url(#clipPath107)" />
    <path
       id="path108"
       d="m 0,0 -9.306,-0.899 -1.87,17.692 8.724,0.842 0.361,-3.414 -4.72,-0.455 0.379,-3.598 4.049,0.39 0.347,-3.286 -4.048,-0.391 0.413,-3.908 5.303,0.511 z"
       style="fill:#ffffff;fill-opacity:1;fill-rule:nonzero;stroke:none;opacity:0.3"
       transform="matrix(0.35277776,0,0,-0.35277776,78.811283,93.048167)"
       clip-path="url(#clipPath109)" />
    <path
       id="path110"
       d="m 0,0 -4.228,-0.626 -6.514,10.388 -0.059,-0.009 1.795,-11.085 -3.887,-0.576 -2.85,17.6 4.377,0.648 L -4.953,6.109 -4.88,6.12 -6.648,17.038 -2.85,17.6 Z"
       style="fill:#ffffff;fill-opacity:1;fill-rule:nonzero;stroke:none;opacity:0.3"
       transform="matrix(0.35277776,0,0,-0.35277776,84.598953,92.234667)"
       clip-path="url(#clipPath111)" />
    <path
       id="path112"
       d="M 0,0 3.569,0.787 6.442,-11.115 2.873,-11.902 Z M -1.349,3.867 C -1.481,4.412 -1.385,4.93 -1.062,5.42 -0.738,5.91 -0.284,6.22 0.302,6.349 0.888,6.477 1.434,6.392 1.944,6.09 2.452,5.788 2.774,5.36 2.909,4.805 3.043,4.25 2.95,3.728 2.632,3.239 2.313,2.75 1.862,2.441 1.276,2.312 0.691,2.183 0.14,2.271 -0.376,2.576 -0.89,2.882 -1.215,3.311 -1.349,3.867"
       style="fill:#0082ca;fill-opacity:1;fill-rule:nonzero;stroke:none;opacity:0.3"
       transform="matrix(0.35277776,0,0,-0.35277776,87.451093,87.263847)"
       clip-path="url(#clipPath113)" />
    <path
       id="path114"
       d="m 0,0 0.628,-2.167 0.058,0.014 c 0.289,1.012 0.641,1.79 1.06,2.335 0.418,0.543 0.985,0.91 1.698,1.1 C 4.322,1.514 5.13,1.341 5.87,0.764 6.608,0.186 7.15,-0.698 7.495,-1.887 l 2.37,-8.176 -3.501,-0.927 -1.973,6.805 C 4.221,-3.6 3.958,-3.174 3.6,-2.91 3.244,-2.645 2.833,-2.574 2.371,-2.696 1.386,-2.957 1.104,-3.81 1.522,-5.255 l 1.89,-6.517 -3.53,-0.934 -3.413,11.771 z"
       style="fill:#0082ca;fill-opacity:1;fill-rule:nonzero;stroke:none;opacity:0.3"
       transform="matrix(0.35277776,0,0,-0.35277776,91.088376,86.403387)"
       clip-path="url(#clipPath115)" />
    <path
       id="path116"
       d="m 0,0 3.462,-17.841 -3.053,-1.179 -7.022,10.647 -0.056,-0.021 2.705,-12.315 -3.293,-1.271 -10.395,15.164 3.832,1.48 2.081,-3.036 3.877,-6.994 0.058,0.022 -2.483,11.372 3.104,1.199 6.719,-10.258 0.058,0.022 -2.289,7.469 c -0.371,1.229 -0.67,2.612 -0.898,4.153 z"
       style="fill:#ffffff;fill-opacity:1;fill-rule:nonzero;stroke:none;opacity:0.3"
       transform="matrix(0.35277776,0,0,-0.35277776,101.77458,80.710187)"
       clip-path="url(#clipPath117)" />
    <path
       id="path118"
       d="m 0,0 3.62,1.743 8.37,-15.88 -3.621,-1.744 z"
       style="fill:#ffffff;fill-opacity:1;fill-rule:nonzero;stroke:none;opacity:0.3"
       transform="matrix(0.35277776,0,0,-0.35277776,102.42619,80.312997)"
       clip-path="url(#clipPath119)" />
    <path
       id="path120"
       d="M 0,0 C 1.052,-1.71 1.464,-3.149 1.236,-4.316 1.01,-5.484 0.117,-6.506 -1.442,-7.382 -1.993,-7.692 -2.481,-7.896 -2.906,-7.998 -3.33,-8.099 -3.996,-8.167 -4.902,-8.201 l -2.082,3.387 c 0.092,0.019 0.277,0.012 0.551,-0.02 1.138,-0.111 2.007,0.004 2.611,0.343 0.932,0.524 0.997,1.44 0.192,2.749 l -6.476,10.532 3.496,1.963 z"
       style="fill:#ffffff;fill-opacity:1;fill-rule:nonzero;stroke:none;opacity:0.3"
       transform="matrix(0.35277776,0,0,-0.35277776,109.38832,81.671087)"
       clip-path="url(#clipPath121)" />
    <path
       id="path122"
       d="m 0,0 -3.458,-2.429 -8.592,5.115 -0.049,-0.035 5.565,-7.239 -3.302,-2.319 -11.016,14.33 3.303,2.318 5.035,-6.55 0.05,0.034 -2.142,8.584 3.348,2.35 2.045,-9.063 z"
       style="fill:#ffffff;fill-opacity:1;fill-rule:nonzero;stroke:none;opacity:0.3"
       transform="matrix(0.35277776,0,0,-0.35277776,115.27936,79.988337)"
       clip-path="url(#clipPath123)" />
    <path
       id="path124"
       d="M 0,0 0.138,5.06"
       style="fill:#ffffff;fill-opacity:1;fill-rule:nonzero;stroke:none;opacity:0.3"
       transform="matrix(0.35277776,0,0,-0.35277776,63.832335,68.630407)"
       clip-path="url(#clipPath125)" />
    <path
       id="path126"
       d="M 0,0 C 0,0.007 -0.003,0.014 -0.004,0.021 L 0.005,-0.423 Z"
       style="fill:#94d600;fill-opacity:1;fill-rule:nonzero;stroke:none;opacity:0.3"
       transform="matrix(0.35277776,0,0,-0.35277776,82.388873,68.78115)"
       clip-path="url(#clipPath127)" />
    <path
       id="path128"
       d="m 0,0 11.183,-3.951 51.525,12.127 36.257,11.1 0.014,8.799 -1.795,2.454 v 4.839 l -2.052,-0.06 -0.079,3.375 -2.167,-0.071 -0.06,2.912 -2.297,-0.062 -0.059,3.03 -2.487,-0.077 -0.035,3.594 -2.547,-0.071 -0.075,3.466 -2.528,-0.061 -0.076,2.725 -2.69,-0.076 -0.948,1.294 v 0.099 l 0.035,4.299 -3.363,-0.122 -0.017,-2.189 -0.319,-0.008 -7.57,1.355 v -2.366 l 4.242,0.105 -0.024,-2.908 2.512,0.042 -0.026,-3.587 2.784,0.101 v -0.311 l -0.022,-3.881 3.014,0.109 -0.044,-4.233 2.174,0.079 -0.027,-3.391 2.732,0.1 -0.019,-3.946 2.44,0.088 -0.125,-3.934 2.737,-3.656 v -8.222 c 0,-0.438 -0.357,-0.795 -0.795,-0.795 -0.439,0 -0.795,0.357 -0.795,0.795 v 7.695 l -2.62,3.521 c -0.039,0.069 -0.064,0.115 -0.082,0.171 -0.021,0.066 -0.026,0.124 -0.029,0.161 -0.004,0.007 -0.014,0.052 -0.011,0.106 l 0.078,2.51 -2.392,-0.087 0.019,3.947 -2.739,-0.1 0.027,3.391 -2.177,-0.079 0.044,4.233 -3.006,-0.109 v 0.311 l 0.023,3.881 -2.79,-0.102 0.025,3.619 -2.512,-0.042 0.025,2.896 -3.452,-0.086 -0.081,0.014 c -0.058,0.001 -0.139,0.018 -0.213,0.051 l -0.041,0.022 c -0.076,0.035 -0.142,0.081 -0.202,0.14 -0.041,0.04 -0.065,0.078 -0.082,0.103 l -0.026,0.039 c -0.018,0.025 -0.044,0.06 -0.064,0.108 -0.029,0.06 -0.038,0.124 -0.042,0.157 -0.014,0.046 -0.025,0.087 -0.027,0.141 l -10e-4,6.21 -1.536,-0.056 -0.049,1.85 -2.998,-0.115 0.048,-2.763 -1.03,0.067 0.043,-2.497 -2.048,0.013 0.064,-1.852 -3.364,-0.024 -0.014,-1.924 2.842,0.103 0.064,-3.943 3.135,0.114 0.079,-4.09 3.37,0.123 0.011,-3.452 2.53,0.092 -0.004,-3.304 3.153,0.115 -0.014,-3.847 2.656,0.097 -0.034,-4.403 1.377,-1.44 0.007,-16.529 c 0,-0.438 -0.356,-0.795 -0.795,-0.795 -0.438,0 -0.795,0.357 -0.795,0.795 v 11.193 l -21.742,24.508 -15.22,0.681 16.831,-17.656 0.004,-0.116 0.24,-11.786 -0.017,0.02 0.144,-11.366 c 0.003,-0.437 -0.349,-0.797 -0.784,-0.805 -0.439,0 -0.798,0.353 -0.806,0.784 L 51.442,22.82 30.744,46.925 20.283,48.238 38.049,27.404 V 27.109 L 37.986,6.198 C 37.983,5.761 37.626,5.405 37.191,5.405 36.751,5.408 36.395,5.766 36.396,6.203 l 0.063,20.617 c -0.744,0.883 -7.215,8.517 -18.281,21.564 l -0.554,0.653 -0.033,3.724 H 15.312 L 15.285,49.563 15.229,49.485 0.169,28.936 Z"
       style="fill:#ffffff;fill-opacity:1;fill-rule:nonzero;stroke:none;opacity:0.3"
       transform="matrix(0.35277776,0,0,-0.35277776,63.788978,76.48388)"
       clip-path="url(#clipPath129)" />
    <path
       id="path130"
       d="m 0,0 6.165,-0.773 0.038,-0.044 20.037,-23.337 -0.148,7.3 L 7.395,2.763 7.347,6.021 2.715,6.009 2.695,2.487 Z"
       style="fill:#ffffff;fill-opacity:1;fill-rule:nonzero;stroke:none;opacity:0.3"
       transform="matrix(0.35277776,0,0,-0.35277776,72.71746,59.177797)"
       clip-path="url(#clipPath131)" />
    <path
       id="path132"
       d="m 0,0 11.201,-0.452 21.143,-23.832 -0.004,2.301 -1.385,1.449 v 0.122 l 0.026,3.266 -2.648,-0.096 0.015,3.846 -3.152,-0.114 0.004,3.304 -2.519,-0.092 -0.012,3.452 -3.347,-0.121 -0.079,4.09 L 16.104,-2.992 16.041,0.952 13.16,0.846 13.185,3.955 10.881,3.871 10.829,7.321 9.886,7.287 9.825,9.651 7.059,9.55 7.12,7.259 5.824,7.213 5.807,4.919 3.037,4.818 3.009,0.639 0,0.755 Z"
       style="fill:#ffffff;fill-opacity:1;fill-rule:nonzero;stroke:none;opacity:0.3"
       transform="matrix(0.35277776,0,0,-0.35277776,78.116983,58.161728)"
       clip-path="url(#clipPath133)" />
  </g>
</svg>
